<svg xmlns="http://www.w3.org/2000/svg" width="173.362" height="44.728" viewBox="0 0 173.362 44.728">
  <g id="Group_2" data-name="Group 2" transform="translate(-329.129 -455.915)">
    <path id="Path_1" data-name="Path 1" d="M387.2,486.451v-4.279a2.007,2.007,0,0,0-2.006-2.007h-6.446v31.453H387.2V499.536q0-5.771,3.007-8.291a11.4,11.4,0,0,1,7.585-2.52h1v-8.94A12.861,12.861,0,0,0,387.2,486.451Z" transform="translate(-24.446 -11.761)" fill="#fff"/>
    <path id="Path_2" data-name="Path 2" d="M440.312,479.359a16.833,16.833,0,0,0-5.771,1.029,17.385,17.385,0,0,0-5.175,2.981,13.915,13.915,0,0,0-3.793,5.174,17.512,17.512,0,0,0-1.436,7.179q0,7.517,4.687,11.947t12.9,4.416l.109-.054a18.746,18.746,0,0,0,4.633-.568,13.9,13.9,0,0,0,6.1-3.008,18.289,18.289,0,0,0,1.517-1.327c.217-.245.38-.433.487-.57l-4.5-4.279-.893.73a11.514,11.514,0,0,1-2.845,1.382,11.715,11.715,0,0,1-4.09.732,10.676,10.676,0,0,1-6.421-1.734,7.79,7.79,0,0,1-3.089-4.226h23.488a21.142,21.142,0,0,0,.162-2.765c0-5.39-1.489-9.59-4.442-12.57A15.642,15.642,0,0,0,440.312,479.359Zm-7.64,14.251a7.192,7.192,0,0,1,2.141-4.877,7.29,7.29,0,0,1,5.472-2.059,6.915,6.915,0,0,1,7.369,6.935Z" transform="translate(-46.812 -11.551)" fill="#fff"/>
    <path id="Path_3" data-name="Path 3" d="M552.375,479.145l.082.081c-3.874,0-7.559,1.789-11.026,5.338v-2.708a2.007,2.007,0,0,0-2.006-2.007h-6.447V511.3h8.453V494.045a6.9,6.9,0,0,1,2.113-5.2,7.446,7.446,0,0,1,5.391-2.031,6.515,6.515,0,0,1,4.876,1.868,7.209,7.209,0,0,1,1.815,5.257v17.311h8.426V492.664c0-4.145-1.084-7.423-3.224-9.861A10.7,10.7,0,0,0,552.375,479.145Z" transform="translate(-100.439 -11.446)" fill="#fff"/>
    <path id="Path_4" data-name="Path 4" d="M506.659,480.428h-6.42v31.453h.432l7.994-8.031V482.434A2.006,2.006,0,0,0,506.659,480.428Z" transform="translate(-84.308 -12.078)" fill="#fff"/>
    <path id="Path_5" data-name="Path 5" d="M345.708,473.692h-4.767v-7.044h-.433L329.129,478.08v3.143h3.387v16.2a7.771,7.771,0,0,0,2.493,6.2c1.653,1.435,3.982,2.14,6.989,2.14a18.7,18.7,0,0,0,5.717-.78V498.1l-.326.139a9.765,9.765,0,0,1-1.137.244,8.919,8.919,0,0,1-1.464.136c-2.573,0-3.847-1.274-3.847-3.82V481.223h6.773V475.7A2.007,2.007,0,0,0,345.708,473.692Z" transform="translate(0 -5.288)" fill="#fff"/>
    <path id="Path_6" data-name="Path 6" d="M503.746,455.915a4.943,4.943,0,1,0,4.943,4.943A4.943,4.943,0,0,0,503.746,455.915Z" transform="translate(-83.6 0)" fill="#fff"/>
    <path id="Path_7" data-name="Path 7" d="M622.4,479.145a16.472,16.472,0,1,0,16.472,16.472A16.471,16.471,0,0,0,622.4,479.145Zm0,25.3a8.832,8.832,0,1,1,8.831-8.832A8.832,8.832,0,0,1,622.4,504.449Z" transform="translate(-136.384 -11.446)" fill="#fff"/>
  </g>
</svg>
