<svg xmlns="http://www.w3.org/2000/svg" xmlns:xlink="http://www.w3.org/1999/xlink" width="212.288" height="54.771" viewBox="0 0 212.288 54.771">
  <defs>
    <linearGradient id="linear-gradient" y1="0.5" x2="1" y2="0.5" gradientUnits="objectBoundingBox">
      <stop offset="0" stop-color="#13e860"/>
      <stop offset="0.307" stop-color="#0ec58c"/>
      <stop offset="0.777" stop-color="#0994cc"/>
      <stop offset="1" stop-color="#0781e5"/>
    </linearGradient>
  </defs>
  <path id="Path_8" data-name="Path 8" d="M370.3,478.905v-5.24a2.457,2.457,0,0,0-2.457-2.457H359.95v38.516H370.3V494.928q0-7.067,3.682-10.152a13.957,13.957,0,0,1,9.289-3.085H384.5V470.743Q375.293,470.743,370.3,478.905Zm37.653-8.427a20.616,20.616,0,0,0-7.067,1.26,21.289,21.289,0,0,0-6.337,3.65,17.025,17.025,0,0,0-4.643,6.336,21.434,21.434,0,0,0-1.759,8.791c0,6.137,1.924,11.013,5.739,14.63s9.09,5.407,15.791,5.407l.133-.066a22.964,22.964,0,0,0,5.673-.7,17.026,17.026,0,0,0,7.464-3.684,22.4,22.4,0,0,0,1.858-1.624c.265-.3.465-.531.6-.7l-5.507-5.24-1.095.895a14.1,14.1,0,0,1-3.484,1.692,14.346,14.346,0,0,1-5.009.9,13.073,13.073,0,0,1-7.862-2.123,9.539,9.539,0,0,1-3.782-5.175h28.762a25.889,25.889,0,0,0,.2-3.385c0-6.6-1.824-11.743-5.44-15.393S413.825,470.478,407.953,470.478ZM398.6,487.929a8.807,8.807,0,0,1,2.621-5.972,8.927,8.927,0,0,1,6.7-2.521,8.467,8.467,0,0,1,9.023,8.492Zm80.914-17.583.1.1c-4.743,0-9.255,2.19-13.5,6.536v-3.316a2.457,2.457,0,0,0-2.457-2.457h-7.894v38.516h10.351V488.591a8.451,8.451,0,0,1,2.587-6.37,9.118,9.118,0,0,1,6.6-2.487,7.978,7.978,0,0,1,5.971,2.288,8.828,8.828,0,0,1,2.223,6.437v21.2H493.81V486.9c0-5.076-1.327-9.089-3.948-12.075A13.1,13.1,0,0,0,479.512,470.345Zm-36.229.8h-7.861v38.515h.528l9.789-9.835V473.6A2.457,2.457,0,0,0,443.282,471.142Zm-93.852.065h-5.837v-8.625h-.53l-13.934,14v3.849h4.147v19.838c0,3.318,1.029,5.839,3.053,7.6s4.876,2.62,8.559,2.62a22.89,22.89,0,0,0,7-.955v-8.438l-.4.171a11.932,11.932,0,0,1-1.393.3,10.921,10.921,0,0,1-1.792.167c-3.151,0-4.711-1.56-4.711-4.678V480.43h8.294v-6.765A2.457,2.457,0,0,0,349.431,471.208Zm91.151-15.293a6.053,6.053,0,1,0,6.053,6.053A6.053,6.053,0,0,0,440.582,455.915Zm80.664,14.43a20.17,20.17,0,1,0,20.17,20.17A20.17,20.17,0,0,0,521.246,470.345Zm0,30.985a10.815,10.815,0,1,1,10.815-10.815A10.815,10.815,0,0,1,521.246,501.33Z" transform="translate(-329.129 -455.915)" fill="url(#linear-gradient)"/>
</svg>
